<svg xmlns="http://www.w3.org/2000/svg" viewBox="0 0 200 200"><defs><style>.cls-1{fill:#f7f7f7;stroke:#f7f7f7;stroke-miterlimit:10;}</style></defs><title>at</title><g id="Слой_3" data-name="Слой 3"><path class="cls-1" d="M98.25,10a90,90,0,0,0,0,180,6.72,6.72,0,1,0,0-13.44A76.56,76.56,0,1,1,174.8,100v20.82a14.1,14.1,0,1,1-28.19,0V100a48.42,48.42,0,1,0-11.42,31.17,27.54,27.54,0,0,0,53.06-10.35V100A90.1,90.1,0,0,0,98.25,10Zm0,124.92A34.92,34.92,0,1,1,133.16,100,35,35,0,0,1,98.25,134.92Z"/></g></svg>