<svg xmlns="http://www.w3.org/2000/svg" viewBox="0 0 200 200"><defs><style>.cls-1{fill:#f7f7f7;}</style></defs><title>github2</title><g id="Слой_3" data-name="Слой 3"><path class="cls-1" d="M177.93,57a89.66,89.66,0,0,0-32.76-32.76A88,88,0,0,0,100,12.2,88.12,88.12,0,0,0,54.82,24.27,89.63,89.63,0,0,0,22.07,57,88,88,0,0,0,10,102.2a87.46,87.46,0,0,0,17.17,52.91,88.19,88.19,0,0,0,44.35,32.52c2.11.39,3.67.11,4.69-.82a4.61,4.61,0,0,0,1.52-3.52q0-.34-.06-6.33c0-4-.06-7.46-.06-10.42l-2.69.46a33.84,33.84,0,0,1-6.51.41,48.82,48.82,0,0,1-8.14-.82,18.08,18.08,0,0,1-7.85-3.51,14.92,14.92,0,0,1-5.16-7.21l-1.17-2.69a29.22,29.22,0,0,0-3.69-6,14.1,14.1,0,0,0-5.1-4.45l-.82-.59A8.72,8.72,0,0,1,35,140.75a6.12,6.12,0,0,1-1.05-1.64c-.24-.54,0-1,.58-1.35a7.67,7.67,0,0,1,3.4-.52l2.34.35A17,17,0,0,1,46,140.4a19,19,0,0,1,5.69,6.09,20.54,20.54,0,0,0,6.5,7.33,13.81,13.81,0,0,0,7.68,2.52,33.28,33.28,0,0,0,6.68-.59A23.3,23.3,0,0,0,77.85,154q1.05-7.86,5.74-12.08a78.79,78.79,0,0,1-12-2.11,47.46,47.46,0,0,1-11-4.57,31.47,31.47,0,0,1-9.43-7.85A37.7,37.7,0,0,1,45,115.09a58.57,58.57,0,0,1-2.4-17.58,34.17,34.17,0,0,1,9.25-24.14q-4.34-10.66.82-23.91,3.41-1.05,10.08,1.59a69.11,69.11,0,0,1,9.79,4.51q3.11,1.88,5,3.16a84.78,84.78,0,0,1,45,0L127,55.91a63.42,63.42,0,0,1,10.78-5.16q6.21-2.34,9.5-1.29,5.27,13.24.93,23.91a34.19,34.19,0,0,1,9.26,24.14,59.17,59.17,0,0,1-2.4,17.64,36.3,36.3,0,0,1-6.21,12.3,32.52,32.52,0,0,1-9.49,7.79,47.46,47.46,0,0,1-11,4.57,80,80,0,0,1-12,2.12q6.09,5.26,6.09,16.64v24.72a4.65,4.65,0,0,0,1.47,3.51q1.47,1.41,4.63.82a88.07,88.07,0,0,0,44.35-32.52A87.41,87.41,0,0,0,190,102.2,88.08,88.08,0,0,0,177.93,57Z"/></g></svg>