<?xml version="1.0" encoding="utf-8"?>
<!-- Generator: Adobe Illustrator 23.0.3, SVG Export Plug-In . SVG Version: 6.00 Build 0)  -->
<svg version="1.1" id="Слой_1" xmlns="http://www.w3.org/2000/svg" xmlns:xlink="http://www.w3.org/1999/xlink" x="0px" y="0px"
	 viewBox="0 0 841 841.9" style="enable-background:new 0 0 841 841.9;" xml:space="preserve">
<style type="text/css">
	.st0{fill:#00C4E6;}
</style>
<title>Монтажная область 1</title>
<path class="st0" d="M788.3,704.8c-24.6,0-44.6-20-44.6-44.6v-165c0-59.9-69.7-110.5-152.1-110.5H256.3
	c-82.5,0-152.1,50.6-152.1,110.5v165c0,24.6-20,44.6-44.6,44.6S15,684.8,15,660.2v-165C15,385,123.3,295.4,256.4,295.4h335.3
	c133.1,0,241.4,89.6,241.4,199.8v165C832.9,684.8,812.9,704.8,788.3,704.8z"/>
<path class="st0" d="M326.9,704.8c-24.6,0-44.6-20-44.6-44.6V146.6c0-24.6,20-44.6,44.6-44.6s44.6,20,44.6,44.6v513.5
	C371.5,684.8,351.6,704.8,326.9,704.8L326.9,704.8z"/>
<path class="st0" d="M518.2,704.8c-24.6,0-44.6-20-44.6-44.6V146.6c0-24.6,20-44.6,44.6-44.6c24.6,0,44.6,20,44.6,44.6v513.5
	C562.8,684.8,542.8,704.8,518.2,704.8z"/>
</svg>
