<svg id="Слой_2" data-name="Слой 2" xmlns="http://www.w3.org/2000/svg" viewBox="0 0 841.89 235.67"><defs><style>.cls-1{fill:#6b6966;}.cls-2{fill:#736ea9;}.cls-2,.cls-3{stroke:#756faf;}.cls-2,.cls-3,.cls-4,.cls-5{stroke-miterlimit:10;}.cls-3{fill:#756faf;}.cls-3,.cls-4,.cls-5{stroke-width:2px;}.cls-4{fill:#e6bc4a;stroke:#e6bc4a;}.cls-5{fill:#7bc2d2;stroke:#7bc2d2;}</style></defs><title>full ver svg</title><path class="cls-1" d="M783,169.39a50.2,50.2,0,0,1-95.3,22,9.78,9.78,0,0,1,4.6-13.19,9.93,9.93,0,0,1,13.19,4.4A30.38,30.38,0,0,0,763.21,170V159a50,50,0,0,1-80.51-39.75,50.15,50.15,0,1,1,100.29,0Zm-19.78-50.14a30.37,30.37,0,1,0-30.36,30.37A30.48,30.48,0,0,0,763.21,119.25Z"/><path class="cls-1" d="M671.31,109.86a1.8,1.8,0,0,1,.2,1V159.4a10,10,0,0,1-10,10,9.84,9.84,0,0,1-9.79-10V109.06a20.38,20.38,0,0,0-40.76,0V159.4a9.84,9.84,0,0,1-9.79,10,10,10,0,0,1-10-10V109.06a20.28,20.28,0,0,0-40.55,0V159.4a9.89,9.89,0,1,1-19.78,0V109.06A40.12,40.12,0,0,1,571,69.1a39.53,39.53,0,0,1,30.16,13.79A39.55,39.55,0,0,1,631.35,69.1a40.12,40.12,0,0,1,40.16,40C671.51,109.46,671.51,109.66,671.31,109.86Z"/><path class="cls-1" d="M501.69,39.74a10.14,10.14,0,0,1-3-7,9.89,9.89,0,0,1,17-7,9.89,9.89,0,0,1-14,14Z"/><path class="cls-1" d="M498.69,159.4V78.89a9.89,9.89,0,0,1,19.78,0V159.4a9.89,9.89,0,1,1-19.78,0Z"/><path class="cls-1" d="M468.93,164.15a10,10,0,0,1-2.8-7,9.57,9.57,0,0,1,9.79-9.79,10,10,0,0,1,7,2.8,9.68,9.68,0,0,1,3,7,10.25,10.25,0,0,1-10,10A9.68,9.68,0,0,1,468.93,164.15Z"/><path class="cls-2" d="M147.91,118.78a49.68,49.68,0,1,1,49.68,49.68A49.72,49.72,0,0,1,147.91,118.78Zm19.59,0A30.09,30.09,0,1,0,197.59,88.7,30.2,30.2,0,0,0,167.5,118.78Z"/><path class="cls-2" d="M138.25,118.15v39.78c0,5.54-3.76,9.9-8.55,9.9-4.61,0-8.37-4.36-8.37-9.9V118.15c0-16.63-11.62-30.08-26-30.08s-26,13.45-26,30.08v39.78c0,5.54-3.75,9.9-8.54,9.9-4.61,0-8.37-4.36-8.37-9.9V118.15c0-27.51,19.31-49.68,42.88-49.68S138.25,90.64,138.25,118.15Z"/><path class="cls-3" d="M319,90.48h-6.24C293,90.48,276.3,102.61,276.3,117V156.5a10.69,10.69,0,1,1-21.38,0V117c0-26.39,26-47.87,57.84-47.87H319"/><path class="cls-4" d="M319,69.1h74.09c31.89,0,57.83,21.48,57.83,47.87V156.5a10.69,10.69,0,1,1-21.38,0V117c0-14.36-16.69-26.49-36.45-26.49H319"/><path class="cls-5" d="M329.69,167.2A10.7,10.7,0,0,1,319,156.5v-123a10.69,10.69,0,1,1,21.38,0V156.5A10.69,10.69,0,0,1,329.69,167.2Z"/><path class="cls-4" d="M375.52,167.2a10.69,10.69,0,0,1-10.69-10.7v-123a10.69,10.69,0,0,1,21.38,0V156.5A10.7,10.7,0,0,1,375.52,167.2Z"/></svg>