<?xml version="1.0" encoding="utf-8"?>
<!-- Generator: Adobe Illustrator 23.0.3, SVG Export Plug-In . SVG Version: 6.00 Build 0)  -->
<svg version="1.1" id="Слой_1" xmlns="http://www.w3.org/2000/svg" xmlns:xlink="http://www.w3.org/1999/xlink" x="0px" y="0px"
	 viewBox="0 0 841.9 235.7" style="enable-background:new 0 0 841.9 235.7;" xml:space="preserve">
<style type="text/css">
	.st0{fill:#3B3B3B;}
	.st1{fill:#3B3B3B;stroke:#3B3B3B;stroke-miterlimit:10;}
	.st2{fill:#3B3B3B;stroke:#3B3B3B;stroke-width:2;stroke-miterlimit:10;}
</style>
<title>full ver svg</title>
<path class="st0" d="M783,169.4c0,27.7-22.5,50.2-50.2,50.2c-19.2,0-36.6-10.9-45.1-28.2c-2.4-4.8-0.4-10.7,4.4-13.1
	c0.1,0,0.1-0.1,0.2-0.1c4.9-2.4,10.7-0.4,13.2,4.4c7.3,15.1,25.5,21.4,40.6,14.1c10.3-5,16.9-15.3,17.1-26.7v-11
	c-21.9,16.9-53.3,12.8-70.1-9.1c-6.8-8.8-10.4-19.6-10.4-30.6c-0.4-27.7,21.7-50.5,49.4-50.9s50.5,21.7,50.9,49.4c0,0.5,0,0.9,0,1.4
	L783,169.4z M763.2,119.3c0-16.8-13.6-30.4-30.4-30.4c-16.8,0-30.4,13.6-30.4,30.4s13.6,30.4,30.4,30.4c0,0,0,0,0,0
	C749.6,149.5,763.1,136,763.2,119.3L763.2,119.3z"/>
<path class="st0" d="M671.3,109.9c0.2,0.3,0.2,0.7,0.2,1v48.5c0,5.5-4.5,10-10,10c-5.4,0-9.8-4.5-9.8-9.9c0,0,0-0.1,0-0.1v-50.3
	c0-11.3-9.1-20.4-20.4-20.4S611,97.8,611,109.1v50.3c0.1,5.4-4.2,9.9-9.7,10c0,0-0.1,0-0.1,0c-5.5,0-10-4.5-10-10v-50.3
	c-0.2-11.2-9.5-20.1-20.7-19.8c-10.8,0.2-19.6,9-19.8,19.8v50.3c0,5.5-4.4,9.9-9.9,9.9s-9.9-4.4-9.9-9.9v-50.3
	c0.1-22.1,18-40,40.2-40c11.6,0,22.6,5,30.2,13.8c7.6-8.8,18.6-13.8,30.2-13.8c22.1,0,40.1,17.9,40.2,40
	C671.5,109.5,671.5,109.7,671.3,109.9z"/>
<path class="st0" d="M501.7,39.7c-1.9-1.9-2.9-4.4-3-7c-0.1-5.5,4.3-9.9,9.8-10c2.7,0,5.3,1.1,7.2,3c3.9,3.9,3.9,10.1,0,14
	C511.8,43.6,505.6,43.6,501.7,39.7z"/>
<path class="st0" d="M498.7,159.4V78.9c0-5.5,4.4-9.9,9.9-9.9s9.9,4.4,9.9,9.9v80.5c0,5.5-4.4,9.9-9.9,9.9
	C503.1,169.3,498.7,164.9,498.7,159.4C498.7,159.4,498.7,159.4,498.7,159.4L498.7,159.4z"/>
<path class="st0" d="M468.9,164.1c-1.8-1.9-2.8-4.4-2.8-7c-0.1-5.3,4.1-9.7,9.3-9.8c0.1,0,0.3,0,0.4,0c2.6,0,5.1,1,7,2.8
	c1.9,1.8,3,4.4,3,7c-0.1,5.5-4.5,9.9-10,10C473.3,167.2,470.8,166.1,468.9,164.1z"/>
<path class="st1" d="M147.9,118.8c0-27.4,22.2-49.7,49.7-49.7c27.4,0,49.7,22.2,49.7,49.7s-22.2,49.7-49.7,49.7h0
	C170.2,168.4,147.9,146.2,147.9,118.8z M167.5,118.8c0,16.6,13.5,30.1,30.1,30.1s30.1-13.5,30.1-30.1s-13.5-30.1-30.1-30.1
	c0,0,0,0,0,0C181,88.8,167.6,102.2,167.5,118.8z"/>
<path class="st1" d="M138.3,118.2v39.8c0,5.5-3.8,9.9-8.6,9.9c-4.6,0-8.4-4.4-8.4-9.9v-39.8c0-16.6-11.6-30.1-26-30.1
	s-26,13.4-26,30.1v39.8c0,5.5-3.8,9.9-8.5,9.9c-4.6,0-8.4-4.4-8.4-9.9v-39.8c0-27.5,19.3-49.7,42.9-49.7S138.3,90.6,138.3,118.2z"/>
<path class="st2" d="M319,90.5h-6.2c-19.8,0-36.5,12.1-36.5,26.5v39.5c0,5.9-4.8,10.7-10.7,10.7s-10.7-4.8-10.7-10.7V117
	c0-26.4,26-47.9,57.8-47.9h6.2"/>
<path class="st2" d="M319,69.1h74.1c31.9,0,57.8,21.5,57.8,47.9v39.5c0,5.9-4.8,10.7-10.7,10.7s-10.7-4.8-10.7-10.7V117
	c0-14.4-16.7-26.5-36.5-26.5H319"/>
<path class="st2" d="M329.7,167.2c-5.9,0-10.7-4.8-10.7-10.7v-123c0-5.9,4.8-10.7,10.7-10.7s10.7,4.8,10.7,10.7v123
	C340.4,162.4,335.6,167.2,329.7,167.2C329.7,167.2,329.7,167.2,329.7,167.2z"/>
<path class="st2" d="M375.5,167.2c-5.9,0-10.7-4.8-10.7-10.7c0,0,0,0,0,0v-123c0-5.9,4.8-10.7,10.7-10.7s10.7,4.8,10.7,10.7v123
	C386.2,162.4,381.4,167.2,375.5,167.2z"/>
</svg>
