<svg xmlns="http://www.w3.org/2000/svg" viewBox="0 0 200 200"><defs><style>.cls-1{fill:#a1a1a1;}</style></defs><title>vk3</title><g id="Слой_3" data-name="Слой 3"><path class="cls-1" d="M100,10a90,90,0,0,0-90,90h0a90,90,0,0,0,180,0h0A90,90,0,0,0,100,10Zm37.19,96.66q.93,1.14,4.42,4.47h0l.06.05.05.06.11.11q7.68,7.14,10.41,12a6,6,0,0,1,.35.68,6.8,6.8,0,0,1,.39,1.45,4.38,4.38,0,0,1,0,1.85,2.69,2.69,0,0,1-1.36,1.5,6.4,6.4,0,0,1-3.22.68l-13.95.22a6.16,6.16,0,0,1-3.05-.27,14.16,14.16,0,0,1-2.84-1.2l-1.09-.66a25.23,25.23,0,0,1-3.81-3.48c-1.45-1.57-2.7-3-3.73-4.23a18.23,18.23,0,0,0-3.33-3.16,3.47,3.47,0,0,0-3.08-.84,2,2,0,0,0-.43.19,4.2,4.2,0,0,0-.93.79,6.62,6.62,0,0,0-1.17,1.6,10.9,10.9,0,0,0-.93,2.84,17.88,17.88,0,0,0-.35,4.22,5.86,5.86,0,0,1-.19,1.5,4.07,4.07,0,0,1-.41,1l-.22.27a4.34,4.34,0,0,1-2.89,1.2H99.75a25,25,0,0,1-8-.9,30.56,30.56,0,0,1-7.17-2.89,64.91,64.91,0,0,1-5.61-3.6A31.66,31.66,0,0,1,75.18,119l-1.37-1.31c-.36-.36-.86-.91-1.5-1.63s-1.93-2.38-3.89-5-3.89-5.32-5.78-8.23S58.53,96.16,56,91.4,51,81.7,48.85,76.58a4.5,4.5,0,0,1-.32-1.47,1.81,1.81,0,0,1,.16-.88l.22-.32c.54-.69,1.58-1,3.1-1L67,72.76a5.42,5.42,0,0,1,1.25.36,3.37,3.37,0,0,1,.87.46l.28.16a3.57,3.57,0,0,1,1.3,1.75c.73,1.81,1.56,3.69,2.51,5.64s1.69,3.42,2.23,4.44l.88,1.58q1.58,3.27,3,5.67A27.87,27.87,0,0,0,82,96.55a13.33,13.33,0,0,0,2.26,2.1,3.46,3.46,0,0,0,1.86.76,4.16,4.16,0,0,0,1.47-.27,1.11,1.11,0,0,0,.27-.27,10.6,10.6,0,0,0,.65-1.2,8.69,8.69,0,0,0,.74-2.56c.16-1.06.33-2.53.52-4.42a42.71,42.71,0,0,0,0-6.81,26.89,26.89,0,0,0-.49-4,10.23,10.23,0,0,0-.77-2.5l-.32-.66a6.74,6.74,0,0,0-4.64-2.34c-.47-.07-.38-.51.28-1.31a7.14,7.14,0,0,1,2.07-1.63c1.92-.95,6.27-1.38,13-1.31a35.53,35.53,0,0,1,7.36.71,6.18,6.18,0,0,1,1.83.73,2.91,2.91,0,0,1,1.11,1.31,7.87,7.87,0,0,1,.57,1.74,12.39,12.39,0,0,1,.19,2.48c0,1.06,0,2.06,0,3s-.08,2.23-.14,3.84-.08,3.12-.08,4.5c0,.4,0,1.16,0,2.29s-.05,2,0,2.61.08,1.36.19,2.21a6,6,0,0,0,.63,2.13A3.65,3.65,0,0,0,111.63,99l.93.22c.33.07.8-.13,1.42-.6a19.15,19.15,0,0,0,2.07-1.88,28,28,0,0,0,2.83-3.65c1.13-1.65,2.36-3.61,3.71-5.86A89,89,0,0,0,128.42,75a4.13,4.13,0,0,1,.54-1,2.43,2.43,0,0,1,.6-.58l.22-.16.27-.14.71-.16a2,2,0,0,1,1.09,0l15.7-.11A8.64,8.64,0,0,1,151,73a3.19,3.19,0,0,1,1.69.9l.32.54q1.26,3.49-8.17,16-1.32,1.74-3.55,4.63-4.25,5.44-4.9,7.14A4.17,4.17,0,0,0,137.19,106.66Z"/></g></svg>